<svg xmlns="http://www.w3.org/2000/svg" viewBox="611.7 689.7 760.3 631.6" role="img" aria-label="JeetLabs">
  <title>JeetLabs monogram</title>
  <defs>
    <linearGradient id="jlMonogram" x1="0" y1="0" x2="0.35" y2="1">
      <stop offset="0" stop-color="#EAFFF2"/>
      <stop offset="0.55" stop-color="#8FE6AE"/>
      <stop offset="1" stop-color="#4E7A5C"/>
    </linearGradient>
  </defs>
  <g fill="url(#jlMonogram)" fill-rule="evenodd">
    <path d="M789.6 1314C766.8 1311.8 738.2 1302.2 715.8 1289.3C684.4 1271.1 656.9 1241.1 639.6 1206.3C625.6 1178.2 619.6 1153.4 618.3 1119.2L617.7 1102L681.2 1102L744.8 1102L745.4 1111.2C746.6 1127.4 747.9 1134.8 751 1142.9C757.3 1159.1 769.9 1172.9 785.5 1180.6C795.5 1185.5 801.8 1187 812.4 1187C824.3 1187 831.8 1185.3 841.7 1180.4C859.7 1171.5 872.8 1155.8 877.7 1137C878.8 1132.7 879.3 1117.5 880.1 1066C881.1 992.5 881.9 977.1 885.5 962.2C895.3 921.6 920 885.4 952.5 863.6C976.1 847.8 1001.1 839.6 1038.2 835.5L1044 834.9L1044 851.3L1044 867.8L1036.8 868.5C1027.3 869.3 1014.1 871 1011.2 871.7L1009 872.2L1009 930.1L1009 988L1018.8 988C1034.8 988 1046 984.1 1056.4 974.8C1062.7 969.3 1065.1 965.6 1068.6 956.8L1071 950.6L1071 823.2L1071 695.7L1078.7 696.4C1082.9 696.7 1111.7 697 1142.8 697L1199.3 697L1198.6 826.6C1198.2 897.8 1197.5 961.2 1196.9 967.3C1195.9 978.8 1191.1 999.3 1186.6 1011.4C1182.6 1022 1172.3 1041.3 1165.7 1050.6C1162.3 1055.4 1154.8 1064.1 1149 1070C1119.8 1099.5 1092.8 1112.1 1050.5 1116C1044.5 1116.5 1039.2 1117 1038.8 1117C1038.3 1117 1038 1109.8 1038 1101.1L1038 1085.2L1045.2 1084.5C1079.7 1081.4 1106.7 1068.5 1128.5 1044.8C1145.1 1026.7 1155.8 1006.1 1162.9 978.7L1165.8 967.5L1166.4 848.2L1167 729L1135.5 729L1104 729L1104 783.8C1103.9 856.4 1102.3 949.9 1101 958C1098 975.9 1084.7 996.3 1069.6 1006.4C1058.8 1013.6 1040.9 1018.9 1020.5 1021.1C1014.5 1021.7 1009.3 1022.4 1009 1022.7C1008.7 1022.9 1008.2 1047.1 1007.8 1076.3C1006.9 1149 1005.8 1161.4 997.9 1185.3C983.7 1228.6 953.2 1266.1 913 1289.8C895.3 1300.2 871.6 1309 851.5 1312.6C840.9 1314.4 803.2 1315.3 789.6 1314ZM842.5 1281.5C875.9 1275.7 904.6 1260.6 929.5 1235.5C950.6 1214.3 963.6 1190.8 971.6 1159L975 1145.4L974.8 1016.7L974.5 888L969.1 891.6C961.4 896.8 948.8 909.2 942 918.2C928.1 936.5 918.4 959.9 915 983C914.3 987.5 913.5 1019.4 913 1063C912.1 1144.4 912.3 1142.1 904.2 1160.7C891.8 1189.4 868.3 1209.2 836.5 1217.5C828.1 1219.6 801 1219.6 792.1 1217.4C783.9 1215.3 770.4 1209.6 760.5 1204C740.3 1192.4 724.6 1170.8 717.3 1144.8L714.6 1135L683.3 1135C656.6 1135 652 1135.2 652 1136.4C652 1139.5 656.2 1159.4 658.5 1167.3C668 1200.3 693.4 1234.7 722.8 1254.8C739.4 1266.2 762.5 1276.1 782 1280.4C799.2 1284.2 824.3 1284.7 842.5 1281.5Z"/>
    <path d="M881.7 896.6C881.4 895.8 880.8 879.7 880.4 860.7L879.7 826.3L868.6 825.6C862.5 825.3 825.7 825 786.8 825L716 825L716 768.8C716 737.8 715.7 708.8 715.3 704.2L714.7 696L861.4 696L1008 696L1007.9 744.8C1007.8 771.6 1007.5 797.5 1007.1 802.5L1006.5 811.5L995.1 814.8C988.8 816.6 981.9 818.3 979.8 818.6L976 819.3L976 781.8C976 761.2 975.7 740.9 975.4 736.7L974.7 729L861.4 729L748 729L748 760.4L748 791.7L757.2 792.4C762.2 792.7 799.3 793 839.7 793L913 793L913 825.9L913 858.8L905.4 867.6C901.2 872.5 894.3 881.3 890 887.2C885.1 894 882 897.4 881.7 896.6Z"/>
    <path d="M1072.2 1229C1072.4 1157.7 1072.7 1142.8 1073.9 1142.1C1076.1 1140.7 1101.1 1134.8 1101.8 1135.5C1102.9 1136.5 1103.8 1182.1 1103.9 1233.6L1104 1281.8L1208.2 1282.5C1265.6 1282.8 1317 1283 1322.5 1282.8L1332.5 1282.5L1332.8 1250.8L1333 1219L1249.5 1219L1166 1219L1166 1156.4L1166 1093.8L1171.2 1088.1C1175.5 1083.5 1190.4 1064.7 1196.3 1056.6C1197.5 1055 1197.8 1059.9 1198.3 1090.1C1198.7 1109.6 1199 1139.1 1199 1155.8L1199 1186L1282.5 1186L1366 1186L1366 1250.5L1366 1315L1218.9 1315L1071.9 1315L1072.2 1229Z"/>
  </g>
</svg>
